<?xml version="1.0" encoding="iso-8859-1"?>
<!-- Generator: Adobe Illustrator 19.0.0, SVG Export Plug-In . SVG Version: 6.00 Build 0)  -->
<svg version="1.1" id="Capa_1" xmlns="http://www.w3.org/2000/svg" xmlns:xlink="http://www.w3.org/1999/xlink" x="0px" y="0px"
	 viewBox="0 0 368 368" style="enable-background:new 0 0 368 368;" xml:space="preserve">
<g>
	<g>
		<path d="M237.656,50.344c-3.128-3.128-8.184-3.128-11.312,0L192,84.688V8c0-4.416-3.584-8-8-8s-8,3.584-8,8v76.688l-34.344-34.344
			c-3.128-3.128-8.184-3.128-11.312,0s-3.128,8.184,0,11.312l48,48c0.736,0.736,1.624,1.32,2.6,1.728
			c0.976,0.4,2.016,0.616,3.056,0.616s2.08-0.216,3.056-0.616c0.976-0.408,1.864-0.992,2.6-1.728l48-48
			C240.784,58.528,240.784,53.472,237.656,50.344z"/>
	</g>
</g>
<g>
	<g>
		<path d="M237.656,306.344l-47.992-47.992c-0.736-0.744-1.624-1.328-2.608-1.736c-1.952-0.808-4.16-0.808-6.112,0
			c-0.984,0.408-1.864,0.992-2.608,1.736l-47.992,47.992c-3.128,3.128-3.128,8.184,0,11.312s8.184,3.128,11.312,0L176,283.312V360
			c0,4.424,3.584,8,8,8s8-3.576,8-8v-76.688l34.344,34.344c1.56,1.56,3.608,2.344,5.656,2.344c2.048,0,4.096-0.784,5.656-2.344
			C240.784,314.528,240.784,309.472,237.656,306.344z"/>
	</g>
</g>
<g>
	<g>
		<path d="M111.384,180.944c-0.408-0.976-0.992-1.864-1.728-2.6l-48-48c-3.128-3.128-8.184-3.128-11.312,0s-3.128,8.184,0,11.312
			L84.688,176H8c-4.416,0-8,3.584-8,8c0,4.416,3.584,8,8,8h76.688l-34.344,34.344c-3.128,3.128-3.128,8.184,0,11.312
			C51.904,239.216,53.952,240,56,240c2.048,0,4.096-0.784,5.656-2.344l48-48c0.736-0.736,1.32-1.624,1.728-2.6
			C112.192,185.096,112.192,182.896,111.384,180.944z"/>
	</g>
</g>
<g>
	<g>
		<path d="M360,176h-76.688l34.344-34.344c3.128-3.128,3.128-8.184,0-11.312s-8.184-3.128-11.312,0l-48,48
			c-0.736,0.736-1.32,1.624-1.728,2.6c-0.808,1.96-0.808,4.16,0,6.112c0.408,0.976,0.992,1.864,1.728,2.6l48,48
			c1.56,1.56,3.608,2.344,5.656,2.344c2.048,0,4.096-0.784,5.656-2.344c3.128-3.128,3.128-8.184,0-11.312L283.312,192H360
			c4.416,0,8-3.584,8-8C368,179.584,364.416,176,360,176z"/>
	</g>
</g>
<g>
	<g>
		<path d="M184,144c-22.056,0-40,17.944-40,40c0,22.056,17.944,40,40,40c22.056,0,40-17.944,40-40C224,161.944,206.056,144,184,144z
			 M184,208c-13.232,0-24-10.768-24-24s10.768-24,24-24s24,10.768,24,24S197.232,208,184,208z"/>
	</g>
</g>
<g>
</g>
<g>
</g>
<g>
</g>
<g>
</g>
<g>
</g>
<g>
</g>
<g>
</g>
<g>
</g>
<g>
</g>
<g>
</g>
<g>
</g>
<g>
</g>
<g>
</g>
<g>
</g>
<g>
</g>
</svg>
